<svg width="269" height="50" viewBox="0 0 269 50" fill="none" xmlns="http://www.w3.org/2000/svg">
<rect width="269" height="50" fill="black"/>
<path d="M0.483398 38V31.6016H2.54443C3.10986 31.6016 3.61816 31.7305 4.06934 31.9883C4.52051 32.2432 4.87207 32.605 5.12402 33.0737C5.37891 33.5396 5.50781 34.0625 5.51074 34.6426V34.937C5.51074 35.5229 5.38623 36.0488 5.13721 36.5146C4.89111 36.9775 4.54248 37.3408 4.09131 37.6045C3.64307 37.8652 3.14209 37.9971 2.58838 38H0.483398ZM2.02588 32.7925V36.8135H2.56201C3.00439 36.8135 3.34424 36.6567 3.58154 36.3433C3.81885 36.0269 3.9375 35.5581 3.9375 34.937V34.6602C3.9375 34.042 3.81885 33.5762 3.58154 33.2627C3.34424 32.9492 2.99854 32.7925 2.54443 32.7925H2.02588ZM8.6792 35.7412H7.84424V38H6.30176V31.6016H8.81982C9.57861 31.6016 10.1719 31.77 10.5996 32.1069C11.0273 32.4438 11.2412 32.9199 11.2412 33.5352C11.2412 33.9805 11.1504 34.3496 10.9688 34.6426C10.79 34.9355 10.5088 35.1729 10.125 35.3545L11.4609 37.9341V38H9.80859L8.6792 35.7412ZM7.84424 34.5503H8.81982C9.11279 34.5503 9.33252 34.4741 9.479 34.3218C9.62842 34.1665 9.70312 33.9512 9.70312 33.6758C9.70312 33.4004 9.62842 33.1851 9.479 33.0298C9.32959 32.8716 9.10986 32.7925 8.81982 32.7925H7.84424V34.5503ZM15.8071 36.8047H13.6934L13.3242 38H11.6763L14.0229 31.6016H15.4731L17.8374 38H16.1807L15.8071 36.8047ZM14.0625 35.6138H15.438L14.748 33.3945L14.0625 35.6138ZM20.3335 31.6016L21.7617 36.0532L23.1855 31.6016H25.2158V38H23.6689V36.5059L23.8184 33.4473L22.2715 38H21.252L19.7007 33.4429L19.8501 36.5059V38H18.3076V31.6016H20.3335ZM29.9136 36.8047H27.7998L27.4307 38H25.7827L28.1294 31.6016H29.5796L31.9438 38H30.2871L29.9136 36.8047ZM28.1689 35.6138H29.5444L28.8545 33.3945L28.1689 35.6138ZM38.2896 36.8047H36.1758L35.8066 38H34.1587L36.5054 31.6016H37.9556L40.3198 38H38.6631L38.2896 36.8047ZM36.5449 35.6138H37.9204L37.2305 33.3945L36.5449 35.6138ZM46.1338 38H44.6001L42.3325 34.0186V38H40.79V31.6016H42.3325L44.5957 35.583V31.6016H46.1338V38ZM47.1094 38V31.6016H49.1704C49.7358 31.6016 50.2441 31.7305 50.6953 31.9883C51.1465 32.2432 51.498 32.605 51.75 33.0737C52.0049 33.5396 52.1338 34.0625 52.1367 34.6426V34.937C52.1367 35.5229 52.0122 36.0488 51.7632 36.5146C51.5171 36.9775 51.1685 37.3408 50.7173 37.6045C50.269 37.8652 49.7681 37.9971 49.2144 38H47.1094ZM48.6519 32.7925V36.8135H49.188C49.6304 36.8135 49.9702 36.6567 50.2075 36.3433C50.4448 36.0269 50.5635 35.5581 50.5635 34.937V34.6602C50.5635 34.042 50.4448 33.5762 50.2075 33.2627C49.9702 32.9492 49.6245 32.7925 49.1704 32.7925H48.6519ZM59.9282 32.7925H58.0078V38H56.4653V32.7925H54.5801V31.6016H59.9282V32.7925ZM65.9312 38H64.3975V35.3281H62.1255V38H60.583V31.6016H62.1255V34.1416H64.3975V31.6016H65.9312V38ZM70.8794 35.2886H68.4536V36.8135H71.3188V38H66.9111V31.6016H71.3276V32.7925H68.4536V34.1416H70.8794V35.2886ZM75.5815 36.8047H73.4678L73.0986 38H71.4507L73.7974 31.6016H75.2476L77.6118 38H75.9551L75.5815 36.8047ZM73.8369 35.6138H75.2124L74.5225 33.3945L73.8369 35.6138ZM82.5776 32.7925H80.6572V38H79.1147V32.7925H77.2295V31.6016H82.5776V32.7925ZM85.6099 35.7412H84.7749V38H83.2324V31.6016H85.7505C86.5093 31.6016 87.1025 31.77 87.5303 32.1069C87.958 32.4438 88.1719 32.9199 88.1719 33.5352C88.1719 33.9805 88.0811 34.3496 87.8994 34.6426C87.7207 34.9355 87.4395 35.1729 87.0557 35.3545L88.3916 37.9341V38H86.7393L85.6099 35.7412ZM84.7749 34.5503H85.7505C86.0435 34.5503 86.2632 34.4741 86.4097 34.3218C86.5591 34.1665 86.6338 33.9512 86.6338 33.6758C86.6338 33.4004 86.5591 33.1851 86.4097 33.0298C86.2603 32.8716 86.0405 32.7925 85.7505 32.7925H84.7749V34.5503ZM93.0718 35.2886H90.646V36.8135H93.5112V38H89.1035V31.6016H93.52V32.7925H90.646V34.1416H93.0718V35.2886ZM99.6812 36.2993C99.6812 36.0737 99.6006 35.8979 99.4395 35.772C99.2812 35.646 99.0015 35.5156 98.6001 35.3809C98.1987 35.2461 97.8706 35.1157 97.6157 34.9897C96.7866 34.5825 96.3721 34.0229 96.3721 33.311C96.3721 32.9565 96.4746 32.6445 96.6797 32.375C96.8877 32.1025 97.1807 31.8916 97.5586 31.7422C97.9365 31.5898 98.3613 31.5137 98.833 31.5137C99.293 31.5137 99.7046 31.5957 100.068 31.7598C100.434 31.9238 100.718 32.1582 100.92 32.4629C101.123 32.7646 101.224 33.1104 101.224 33.5H99.6855C99.6855 33.2393 99.605 33.0371 99.4438 32.8936C99.2856 32.75 99.0703 32.6782 98.7979 32.6782C98.5225 32.6782 98.3042 32.7397 98.1431 32.8628C97.9849 32.9829 97.9058 33.1367 97.9058 33.3242C97.9058 33.4883 97.9937 33.6377 98.1694 33.7725C98.3452 33.9043 98.6543 34.042 99.0967 34.1855C99.5391 34.3262 99.9023 34.4785 100.187 34.6426C100.878 35.041 101.224 35.5903 101.224 36.2905C101.224 36.8501 101.013 37.2896 100.591 37.6089C100.169 37.9282 99.5903 38.0879 98.855 38.0879C98.3364 38.0879 97.8662 37.9956 97.4443 37.811C97.0254 37.6235 96.709 37.3687 96.4951 37.0464C96.2842 36.7212 96.1787 36.3477 96.1787 35.9258H97.7256C97.7256 36.2686 97.8135 36.522 97.9893 36.686C98.168 36.8472 98.4565 36.9277 98.855 36.9277C99.1099 36.9277 99.3105 36.8735 99.457 36.7651C99.6064 36.6538 99.6812 36.4985 99.6812 36.2993ZM107.038 32.7925H105.117V38H103.575V32.7925H101.689V31.6016H107.038V32.7925ZM112.711 31.6016V35.7896C112.711 36.2642 112.61 36.6758 112.408 37.0244C112.206 37.3701 111.916 37.6338 111.538 37.8154C111.16 37.9971 110.713 38.0879 110.197 38.0879C109.418 38.0879 108.804 37.8857 108.356 37.4814C107.908 37.0771 107.679 36.5234 107.67 35.8203V31.6016H109.222V35.8511C109.239 36.5513 109.564 36.9014 110.197 36.9014C110.517 36.9014 110.758 36.8135 110.922 36.6377C111.086 36.4619 111.168 36.1763 111.168 35.7808V31.6016H112.711ZM113.678 38V31.6016H115.739C116.304 31.6016 116.812 31.7305 117.264 31.9883C117.715 32.2432 118.066 32.605 118.318 33.0737C118.573 33.5396 118.702 34.0625 118.705 34.6426V34.937C118.705 35.5229 118.581 36.0488 118.332 36.5146C118.085 36.9775 117.737 37.3408 117.286 37.6045C116.837 37.8652 116.336 37.9971 115.783 38H113.678ZM115.22 32.7925V36.8135H115.756C116.199 36.8135 116.539 36.6567 116.776 36.3433C117.013 36.0269 117.132 35.5581 117.132 34.937V34.6602C117.132 34.042 117.013 33.5762 116.776 33.2627C116.539 32.9492 116.193 32.7925 115.739 32.7925H115.22ZM121.14 38H119.602V31.6016H121.14V38ZM126.18 35.2886H123.754V36.8135H126.62V38H122.212V31.6016H126.628V32.7925H123.754V34.1416H126.18V35.2886ZM130.548 36.2993C130.548 36.0737 130.468 35.8979 130.307 35.772C130.148 35.646 129.869 35.5156 129.467 35.3809C129.066 35.2461 128.738 35.1157 128.483 34.9897C127.654 34.5825 127.239 34.0229 127.239 33.311C127.239 32.9565 127.342 32.6445 127.547 32.375C127.755 32.1025 128.048 31.8916 128.426 31.7422C128.804 31.5898 129.229 31.5137 129.7 31.5137C130.16 31.5137 130.572 31.5957 130.935 31.7598C131.301 31.9238 131.585 32.1582 131.788 32.4629C131.99 32.7646 132.091 33.1104 132.091 33.5H130.553C130.553 33.2393 130.472 33.0371 130.311 32.8936C130.153 32.75 129.938 32.6782 129.665 32.6782C129.39 32.6782 129.171 32.7397 129.01 32.8628C128.852 32.9829 128.773 33.1367 128.773 33.3242C128.773 33.4883 128.861 33.6377 129.037 33.7725C129.212 33.9043 129.521 34.042 129.964 34.1855C130.406 34.3262 130.77 34.4785 131.054 34.6426C131.745 35.041 132.091 35.5903 132.091 36.2905C132.091 36.8501 131.88 37.2896 131.458 37.6089C131.036 37.9282 130.458 38.0879 129.722 38.0879C129.204 38.0879 128.733 37.9956 128.312 37.811C127.893 37.6235 127.576 37.3687 127.362 37.0464C127.151 36.7212 127.046 36.3477 127.046 35.9258H128.593C128.593 36.2686 128.681 36.522 128.856 36.686C129.035 36.8472 129.324 36.9277 129.722 36.9277C129.977 36.9277 130.178 36.8735 130.324 36.7651C130.474 36.6538 130.548 36.4985 130.548 36.2993ZM135.382 38V31.6016H137.188C137.745 31.6016 138.237 31.7246 138.665 31.9707C139.093 32.2168 139.422 32.5669 139.654 33.021C139.888 33.4751 140.007 33.9966 140.01 34.5854V34.9941C140.01 35.5977 139.893 36.1265 139.658 36.5806C139.427 37.0347 139.094 37.3833 138.661 37.6265C138.23 37.8696 137.728 37.9941 137.153 38H135.382ZM136.226 32.2959V37.3101H137.114C137.764 37.3101 138.27 37.1079 138.63 36.7036C138.993 36.2993 139.175 35.7236 139.175 34.9766V34.603C139.175 33.8765 139.003 33.3125 138.661 32.9111C138.321 32.5068 137.837 32.3018 137.21 32.2959H136.226ZM144.905 35.0425H142.132V37.3101H145.354V38H141.289V31.6016H145.31V32.2959H142.132V34.3525H144.905V35.0425ZM147.248 35.4951V38H146.404V31.6016H148.764C149.464 31.6016 150.012 31.7803 150.407 32.1377C150.806 32.4951 151.005 32.9683 151.005 33.5571C151.005 34.1782 150.81 34.6572 150.42 34.9941C150.034 35.3281 149.479 35.4951 148.755 35.4951H147.248ZM147.248 34.8052H148.764C149.215 34.8052 149.561 34.6997 149.801 34.4888C150.041 34.2749 150.161 33.9673 150.161 33.5659C150.161 33.1851 150.041 32.8804 149.801 32.6519C149.561 32.4233 149.231 32.3047 148.812 32.2959H147.248V34.8052ZM155.008 36.3301H152.328L151.726 38H150.855L153.299 31.6016H154.037L156.485 38H155.619L155.008 36.3301ZM152.583 35.6357H154.758L153.668 32.6431L152.583 35.6357ZM159.693 35.4116H158.19V38H157.342V31.6016H159.46C160.181 31.6016 160.734 31.7656 161.121 32.0938C161.511 32.4219 161.706 32.8994 161.706 33.5264C161.706 33.9248 161.597 34.272 161.38 34.5679C161.167 34.8638 160.868 35.085 160.484 35.2314L161.987 37.9473V38H161.082L159.693 35.4116ZM158.19 34.7217H159.486C159.905 34.7217 160.238 34.6133 160.484 34.3965C160.733 34.1797 160.857 33.8896 160.857 33.5264C160.857 33.1309 160.739 32.8276 160.501 32.6167C160.267 32.4058 159.927 32.2988 159.482 32.2959H158.19V34.7217ZM166.961 32.2959H164.905V38H164.065V32.2959H162.013V31.6016H166.961V32.2959ZM169 31.6016L171.092 36.8223L173.184 31.6016H174.278V38H173.435V35.5083L173.514 32.8188L171.413 38H170.767L168.671 32.832L168.754 35.5083V38H167.911V31.6016H169ZM179.385 35.0425H176.612V37.3101H179.833V38H175.768V31.6016H179.789V32.2959H176.612V34.3525H179.385V35.0425ZM185.801 38H184.953L181.731 33.0693V38H180.883V31.6016H181.731L184.961 36.5542V31.6016H185.801V38ZM191.588 32.2959H189.532V38H188.692V32.2959H186.64V31.6016H191.588V32.2959Z" fill="white"/>
<path d="M4.05176 21.6582V26H0.966797V13.2031H6.07324C7.05176 13.2031 7.91602 13.3848 8.66602 13.748C9.42188 14.1055 10.0049 14.6182 10.415 15.2861C10.8311 15.9482 11.0391 16.7012 11.0391 17.5449C11.0391 18.793 10.5908 19.792 9.69434 20.542C8.80371 21.2861 7.5791 21.6582 6.02051 21.6582H4.05176ZM4.05176 19.2764H6.07324C6.6709 19.2764 7.125 19.127 7.43555 18.8281C7.75195 18.5293 7.91016 18.1074 7.91016 17.5625C7.91016 16.9648 7.74902 16.4873 7.42676 16.1299C7.10449 15.7725 6.66504 15.5908 6.1084 15.585H4.05176V19.2764ZM20.6279 20.5771H15.7764V23.627H21.5068V26H12.6914V13.2031H21.5244V15.585H15.7764V18.2832H20.6279V20.5771ZM27.5186 21.4824H25.8486V26H22.7637V13.2031H27.7998C29.3174 13.2031 30.5039 13.54 31.3594 14.2139C32.2148 14.8877 32.6426 15.8398 32.6426 17.0703C32.6426 17.9609 32.4609 18.6992 32.0977 19.2852C31.7402 19.8711 31.1777 20.3457 30.4102 20.709L33.082 25.8682V26H29.7773L27.5186 21.4824ZM25.8486 19.1006H27.7998C28.3857 19.1006 28.8252 18.9482 29.1182 18.6436C29.417 18.333 29.5664 17.9023 29.5664 17.3516C29.5664 16.8008 29.417 16.3701 29.1182 16.0596C28.8193 15.7432 28.3799 15.585 27.7998 15.585H25.8486V19.1006ZM42.5654 20.9023H37.5908V26H34.5059V13.2031H43.0664V15.585H37.5908V18.5293H42.5654V20.9023ZM55.1865 19.8652C55.1865 21.1133 54.9551 22.2178 54.4922 23.1787C54.0293 24.1396 53.3701 24.8809 52.5146 25.4023C51.665 25.918 50.6953 26.1758 49.6055 26.1758C48.5156 26.1758 47.5488 25.9268 46.7051 25.4287C45.8613 24.9248 45.2021 24.207 44.7275 23.2754C44.2588 22.3438 44.0127 21.2744 43.9893 20.0674V19.3467C43.9893 18.0928 44.2178 16.9883 44.6748 16.0332C45.1377 15.0723 45.7969 14.3311 46.6523 13.8096C47.5137 13.2881 48.4922 13.0273 49.5879 13.0273C50.6719 13.0273 51.6387 13.2852 52.4883 13.8008C53.3379 14.3164 53.9971 15.0518 54.4658 16.0068C54.9404 16.9561 55.1807 18.0459 55.1865 19.2764V19.8652ZM52.0488 19.3291C52.0488 18.0576 51.835 17.0938 51.4072 16.4375C50.9854 15.7754 50.3789 15.4443 49.5879 15.4443C48.041 15.4443 47.2236 16.6045 47.1357 18.9248L47.127 19.8652C47.127 21.1191 47.335 22.083 47.751 22.7568C48.167 23.4307 48.7852 23.7676 49.6055 23.7676C50.3848 23.7676 50.9854 23.4365 51.4072 22.7744C51.8291 22.1123 52.043 21.1602 52.0488 19.918V19.3291ZM61.5322 21.4824H59.8623V26H56.7773V13.2031H61.8135C63.3311 13.2031 64.5176 13.54 65.373 14.2139C66.2285 14.8877 66.6562 15.8398 66.6562 17.0703C66.6562 17.9609 66.4746 18.6992 66.1113 19.2852C65.7539 19.8711 65.1914 20.3457 64.4238 20.709L67.0957 25.8682V26H63.791L61.5322 21.4824ZM59.8623 19.1006H61.8135C62.3994 19.1006 62.8389 18.9482 63.1318 18.6436C63.4307 18.333 63.5801 17.9023 63.5801 17.3516C63.5801 16.8008 63.4307 16.3701 63.1318 16.0596C62.833 15.7432 62.3936 15.585 61.8135 15.585H59.8623V19.1006ZM72.5713 13.2031L75.4277 22.1064L78.2754 13.2031H82.3359V26H79.2422V23.0117L79.541 16.8945L76.4473 26H74.4082L71.3057 16.8857L71.6045 23.0117V26H68.5195V13.2031H72.5713ZM87.5918 26H84.5156V13.2031H87.5918V26ZM100.424 26H97.3564L92.8213 18.0371V26H89.7363V13.2031H92.8213L97.3477 21.166V13.2031H100.424V26ZM112.852 24.418C112.377 24.9453 111.683 25.3701 110.769 25.6924C109.854 26.0146 108.853 26.1758 107.763 26.1758C106.087 26.1758 104.748 25.6631 103.746 24.6377C102.744 23.6123 102.208 22.1855 102.138 20.3574L102.129 19.25C102.129 17.9902 102.352 16.8916 102.797 15.9541C103.242 15.0107 103.878 14.2871 104.704 13.7832C105.536 13.2734 106.497 13.0186 107.587 13.0186C109.181 13.0186 110.417 13.3848 111.296 14.1172C112.181 14.8438 112.696 15.9307 112.843 17.3779H109.872C109.767 16.6631 109.538 16.1533 109.187 15.8486C108.835 15.5439 108.337 15.3916 107.692 15.3916C106.919 15.3916 106.321 15.7197 105.899 16.376C105.478 17.0322 105.264 17.9697 105.258 19.1885V19.9619C105.258 21.2393 105.475 22.2002 105.908 22.8447C106.348 23.4834 107.036 23.8027 107.974 23.8027C108.776 23.8027 109.374 23.624 109.767 23.2666V21.2803H107.622V19.1621H112.852V24.418ZM126.396 23.6094H122.168L121.43 26H118.134L122.827 13.2031H125.728L130.456 26H127.143L126.396 23.6094ZM122.906 21.2275H125.657L124.277 16.7891L122.906 21.2275ZM136.151 21.4824H134.481V26H131.396V13.2031H136.433C137.95 13.2031 139.137 13.54 139.992 14.2139C140.848 14.8877 141.275 15.8398 141.275 17.0703C141.275 17.9609 141.094 18.6992 140.73 19.2852C140.373 19.8711 139.811 20.3457 139.043 20.709L141.715 25.8682V26H138.41L136.151 21.4824ZM134.481 19.1006H136.433C137.019 19.1006 137.458 18.9482 137.751 18.6436C138.05 18.333 138.199 17.9023 138.199 17.3516C138.199 16.8008 138.05 16.3701 137.751 16.0596C137.452 15.7432 137.013 15.585 136.433 15.585H134.481V19.1006ZM152.745 15.585H148.904V26H145.819V15.585H142.049V13.2031H152.745V15.585ZM160.515 22.5986C160.515 22.1475 160.354 21.7959 160.031 21.5439C159.715 21.292 159.155 21.0312 158.353 20.7617C157.55 20.4922 156.894 20.2314 156.384 19.9795C154.726 19.165 153.896 18.0459 153.896 16.6221C153.896 15.9131 154.102 15.2891 154.512 14.75C154.928 14.2051 155.514 13.7832 156.27 13.4844C157.025 13.1797 157.875 13.0273 158.818 13.0273C159.738 13.0273 160.562 13.1914 161.288 13.5195C162.021 13.8477 162.589 14.3164 162.993 14.9258C163.397 15.5293 163.6 16.2207 163.6 17H160.523C160.523 16.4785 160.362 16.0742 160.04 15.7871C159.724 15.5 159.293 15.3564 158.748 15.3564C158.197 15.3564 157.761 15.4795 157.438 15.7256C157.122 15.9658 156.964 16.2734 156.964 16.6484C156.964 16.9766 157.14 17.2754 157.491 17.5449C157.843 17.8086 158.461 18.084 159.346 18.3711C160.23 18.6523 160.957 18.957 161.525 19.2852C162.908 20.082 163.6 21.1807 163.6 22.5811C163.6 23.7002 163.178 24.5791 162.334 25.2178C161.49 25.8564 160.333 26.1758 158.862 26.1758C157.825 26.1758 156.885 25.9912 156.041 25.6221C155.203 25.2471 154.57 24.7373 154.143 24.0928C153.721 23.4424 153.51 22.6953 153.51 21.8516H156.604C156.604 22.5371 156.779 23.0439 157.131 23.3721C157.488 23.6943 158.065 23.8555 158.862 23.8555C159.372 23.8555 159.773 23.7471 160.066 23.5303C160.365 23.3076 160.515 22.9971 160.515 22.5986ZM196.11 13.2031H197.807V22.2646C197.807 23.4893 197.438 24.4473 196.699 25.1387C195.967 25.8301 194.988 26.1758 193.764 26.1758C192.492 26.1758 191.502 25.8506 190.793 25.2002C190.084 24.5498 189.729 23.6387 189.729 22.4668H191.417C191.417 23.1992 191.616 23.7705 192.015 24.1807C192.419 24.5908 193.002 24.7959 193.764 24.7959C194.461 24.7959 195.023 24.5762 195.451 24.1367C195.885 23.6973 196.104 23.082 196.11 22.291V13.2031ZM210.524 20.0146C210.524 21.2686 210.313 22.3643 209.892 23.3018C209.47 24.2334 208.872 24.9453 208.099 25.4375C207.325 25.9297 206.423 26.1758 205.392 26.1758C204.384 26.1758 203.49 25.9297 202.711 25.4375C201.932 24.9395 201.325 24.2334 200.892 23.3193C200.464 22.3994 200.244 21.3359 200.232 20.1289V19.2061C200.232 17.9756 200.446 16.8887 200.874 15.9453C201.302 15.002 201.905 14.2812 202.685 13.7832C203.47 13.2793 204.366 13.0273 205.374 13.0273C206.399 13.0273 207.302 13.2764 208.081 13.7744C208.866 14.2666 209.47 14.9844 209.892 15.9277C210.313 16.8652 210.524 17.958 210.524 19.2061V20.0146ZM208.846 19.1885C208.846 17.6709 208.541 16.5078 207.932 15.6992C207.322 14.8848 206.47 14.4775 205.374 14.4775C204.308 14.4775 203.467 14.8848 202.852 15.6992C202.242 16.5078 201.929 17.6328 201.911 19.0742V20.0146C201.911 21.4854 202.219 22.6426 202.834 23.4863C203.455 24.3242 204.308 24.7432 205.392 24.7432C206.481 24.7432 207.325 24.3477 207.923 23.5566C208.521 22.7598 208.828 21.6201 208.846 20.1377V19.1885ZM222.064 13.2031V21.9043C222.059 23.1113 221.678 24.0986 220.922 24.8662C220.172 25.6338 219.152 26.0645 217.863 26.1582L217.415 26.1758C216.015 26.1758 214.898 25.7979 214.066 25.042C213.234 24.2861 212.812 23.2461 212.801 21.9219V13.2031H214.471V21.8691C214.471 22.7949 214.726 23.5156 215.235 24.0312C215.745 24.541 216.472 24.7959 217.415 24.7959C218.37 24.7959 219.1 24.541 219.604 24.0312C220.113 23.5215 220.368 22.8037 220.368 21.8779V13.2031H222.064ZM229.421 20.8232H226.415V26H224.719V13.2031H228.955C230.396 13.2031 231.504 13.5312 232.277 14.1875C233.057 14.8438 233.446 15.7988 233.446 17.0527C233.446 17.8496 233.229 18.5439 232.796 19.1357C232.368 19.7275 231.771 20.1699 231.003 20.4629L234.009 25.8945V26H232.198L229.421 20.8232ZM226.415 19.4434H229.008C229.846 19.4434 230.511 19.2266 231.003 18.793C231.501 18.3594 231.75 17.7793 231.75 17.0527C231.75 16.2617 231.513 15.6553 231.038 15.2334C230.569 14.8115 229.89 14.5977 228.999 14.5918H226.415V19.4434ZM245.654 26H243.958L237.516 16.1387V26H235.819V13.2031H237.516L243.976 23.1084V13.2031H245.654V26ZM255.876 22.6602H250.515L249.311 26H247.57L252.457 13.2031H253.934L258.829 26H257.098L255.876 22.6602ZM251.024 21.2715H255.375L253.195 15.2861L251.024 21.2715ZM262.248 24.6201H268.312V26H260.552V13.2031H262.248V24.6201Z" fill="white"/>
<rect x="171" y="13" width="13" height="13" fill="#E60000"/>
</svg>
