<svg width="348" height="50" viewBox="0 0 348 50" fill="none" xmlns="http://www.w3.org/2000/svg">
<rect width="348" height="50" fill="black"/>
<path d="M0.742676 38V31.6016H2.54883C3.10547 31.6016 3.59766 31.7246 4.02539 31.9707C4.45312 32.2168 4.78271 32.5669 5.01416 33.021C5.24854 33.4751 5.36719 33.9966 5.37012 34.5854V34.9941C5.37012 35.5977 5.25293 36.1265 5.01855 36.5806C4.78711 37.0347 4.45459 37.3833 4.021 37.6265C3.59033 37.8696 3.08789 37.9941 2.51367 38H0.742676ZM1.58643 32.2959V37.3101H2.47412C3.12451 37.3101 3.62988 37.1079 3.99023 36.7036C4.35352 36.2993 4.53516 35.7236 4.53516 34.9766V34.603C4.53516 33.8765 4.36377 33.3125 4.021 32.9111C3.68115 32.5068 3.19775 32.3018 2.5708 32.2959H1.58643ZM10.2656 35.0425H7.49268V37.3101H10.7139V38H6.64893V31.6016H10.6699V32.2959H7.49268V34.3525H10.2656V35.0425ZM12.6079 35.4951V38H11.7642V31.6016H14.124C14.8242 31.6016 15.3721 31.7803 15.7676 32.1377C16.166 32.4951 16.3652 32.9683 16.3652 33.5571C16.3652 34.1782 16.1704 34.6572 15.7808 34.9941C15.394 35.3281 14.8389 35.4951 14.1152 35.4951H12.6079ZM12.6079 34.8052H14.124C14.5752 34.8052 14.9209 34.6997 15.1611 34.4888C15.4014 34.2749 15.5215 33.9673 15.5215 33.5659C15.5215 33.1851 15.4014 32.8804 15.1611 32.6519C14.9209 32.4233 14.5913 32.3047 14.1724 32.2959H12.6079V34.8052ZM20.3687 36.3301H17.688L17.0859 38H16.2158L18.6592 31.6016H19.3975L21.8452 38H20.9795L20.3687 36.3301ZM17.9429 35.6357H20.1182L19.0283 32.6431L17.9429 35.6357ZM25.0532 35.4116H23.5503V38H22.7021V31.6016H24.8203C25.541 31.6016 26.0947 31.7656 26.4814 32.0938C26.8711 32.4219 27.0659 32.8994 27.0659 33.5264C27.0659 33.9248 26.9575 34.272 26.7407 34.5679C26.5269 34.8638 26.228 35.085 25.8442 35.2314L27.3472 37.9473V38H26.4419L25.0532 35.4116ZM23.5503 34.7217H24.8467C25.2656 34.7217 25.5981 34.6133 25.8442 34.3965C26.0933 34.1797 26.2178 33.8896 26.2178 33.5264C26.2178 33.1309 26.0991 32.8276 25.8618 32.6167C25.6274 32.4058 25.2876 32.2988 24.8423 32.2959H23.5503V34.7217ZM32.3218 32.2959H30.2651V38H29.4258V32.2959H27.3735V31.6016H32.3218V32.2959ZM36.4526 36.3301H33.772L33.1699 38H32.2998L34.7432 31.6016H35.4814L37.9292 38H37.0635L36.4526 36.3301ZM34.0269 35.6357H36.2021L35.1123 32.6431L34.0269 35.6357ZM39.8804 31.6016L41.9722 36.8223L44.064 31.6016H45.1582V38H44.3145V35.5083L44.3936 32.8188L42.293 38H41.647L39.5508 32.832L39.6343 35.5083V38H38.7905V31.6016H39.8804ZM50.2646 35.0425H47.4917V37.3101H50.7129V38H46.6479V31.6016H50.6689V32.2959H47.4917V34.3525H50.2646V35.0425ZM56.6807 38H55.8325L52.6113 33.0693V38H51.7632V31.6016H52.6113L55.8413 36.5542V31.6016H56.6807V38ZM62.4683 32.2959H60.4116V38H59.5723V32.2959H57.52V31.6016H62.4683V32.2959ZM67.9219 31.6016V35.9521C67.9189 36.5557 67.7285 37.0493 67.3506 37.4331C66.9756 37.8169 66.4658 38.0322 65.8213 38.0791L65.5972 38.0879C64.897 38.0879 64.3389 37.8989 63.9229 37.521C63.5068 37.1431 63.2959 36.623 63.29 35.9609V31.6016H64.125V35.9346C64.125 36.3975 64.2524 36.7578 64.5073 37.0156C64.7622 37.2705 65.1255 37.3979 65.5972 37.3979C66.0747 37.3979 66.4395 37.2705 66.6914 37.0156C66.9463 36.7607 67.0737 36.4019 67.0737 35.939V31.6016H67.9219ZM70.1016 37.3101H73.1338V38H69.2534V31.6016H70.1016V37.3101ZM76.0693 38V31.6016H78.1304C78.6958 31.6016 79.2041 31.7305 79.6553 31.9883C80.1064 32.2432 80.458 32.605 80.71 33.0737C80.9648 33.5396 81.0938 34.0625 81.0967 34.6426V34.937C81.0967 35.5229 80.9722 36.0488 80.7231 36.5146C80.4771 36.9775 80.1284 37.3408 79.6772 37.6045C79.229 37.8652 78.728 37.9971 78.1743 38H76.0693ZM77.6118 32.7925V36.8135H78.1479C78.5903 36.8135 78.9302 36.6567 79.1675 36.3433C79.4048 36.0269 79.5234 35.5581 79.5234 34.937V34.6602C79.5234 34.042 79.4048 33.5762 79.1675 33.2627C78.9302 32.9492 78.5845 32.7925 78.1304 32.7925H77.6118ZM85.856 35.2886H83.4302V36.8135H86.2954V38H81.8877V31.6016H86.3042V32.7925H83.4302V34.1416H85.856V35.2886ZM92.7993 36.8047H90.6855L90.3164 38H88.6685L91.0151 31.6016H92.4653L94.8296 38H93.1729L92.7993 36.8047ZM91.0547 35.6138H92.4302L91.7402 33.3945L91.0547 35.6138ZM97.6772 35.7412H96.8423V38H95.2998V31.6016H97.8179C98.5767 31.6016 99.1699 31.77 99.5977 32.1069C100.025 32.4438 100.239 32.9199 100.239 33.5352C100.239 33.9805 100.148 34.3496 99.9668 34.6426C99.7881 34.9355 99.5068 35.1729 99.123 35.3545L100.459 37.9341V38H98.8066L97.6772 35.7412ZM96.8423 34.5503H97.8179C98.1108 34.5503 98.3306 34.4741 98.4771 34.3218C98.6265 34.1665 98.7012 33.9512 98.7012 33.6758C98.7012 33.4004 98.6265 33.1851 98.4771 33.0298C98.3276 32.8716 98.1079 32.7925 97.8179 32.7925H96.8423V34.5503ZM105.974 32.7925H104.054V38H102.511V32.7925H100.626V31.6016H105.974V32.7925ZM109.736 36.8047H107.622L107.253 38H105.605L107.952 31.6016H109.402L111.766 38H110.109L109.736 36.8047ZM107.991 35.6138H109.367L108.677 33.3945L107.991 35.6138ZM110.32 29.8789C110.32 30.2803 110.172 30.6055 109.876 30.8545C109.581 31.1035 109.187 31.228 108.694 31.228C108.202 31.228 107.808 31.1035 107.512 30.8545C107.216 30.6055 107.068 30.2803 107.068 29.8789H108.075C108.075 30.0547 108.129 30.1924 108.237 30.292C108.349 30.3887 108.501 30.437 108.694 30.437C108.888 30.437 109.037 30.3901 109.143 30.2964C109.251 30.1997 109.305 30.0605 109.305 29.8789H110.32ZM119.237 32.7925H117.316V38H115.774V32.7925H113.889V31.6016H119.237V32.7925ZM123.86 35.2886H121.434V36.8135H124.299V38H119.892V31.6016H124.308V32.7925H121.434V34.1416H123.86V35.2886ZM128.562 36.8047H126.448L126.079 38H124.431L126.778 31.6016H128.228L130.592 38H128.936L128.562 36.8047ZM126.817 35.6138H128.193L127.503 33.3945L126.817 35.6138ZM135.558 32.7925H133.638V38H132.095V32.7925H130.21V31.6016H135.558V32.7925ZM138.59 35.7412H137.755V38H136.213V31.6016H138.731C139.49 31.6016 140.083 31.77 140.511 32.1069C140.938 32.4438 141.152 32.9199 141.152 33.5352C141.152 33.9805 141.062 34.3496 140.88 34.6426C140.701 34.9355 140.42 35.1729 140.036 35.3545L141.372 37.9341V38H139.72L138.59 35.7412ZM137.755 34.5503H138.731C139.024 34.5503 139.244 34.4741 139.39 34.3218C139.54 34.1665 139.614 33.9512 139.614 33.6758C139.614 33.4004 139.54 33.1851 139.39 33.0298C139.241 32.8716 139.021 32.7925 138.731 32.7925H137.755V34.5503ZM145.718 36.8047H143.604L143.235 38H141.587L143.934 31.6016H145.384L147.749 38H146.092L145.718 36.8047ZM143.974 35.6138H145.349L144.659 33.3945L143.974 35.6138ZM149.761 36.8135H152.446V38H148.219V31.6016H149.761V36.8135ZM156.819 36.8047H154.705L154.336 38H152.688L155.035 31.6016H156.485L158.849 38H157.192L156.819 36.8047ZM155.074 35.6138H156.45L155.76 33.3945L155.074 35.6138ZM157.403 29.8789C157.403 30.2803 157.255 30.6055 156.959 30.8545C156.664 31.1035 156.27 31.228 155.777 31.228C155.285 31.228 154.891 31.1035 154.595 30.8545C154.299 30.6055 154.151 30.2803 154.151 29.8789H155.158C155.158 30.0547 155.212 30.1924 155.32 30.292C155.432 30.3887 155.584 30.437 155.777 30.437C155.971 30.437 156.12 30.3901 156.226 30.2964C156.334 30.1997 156.388 30.0605 156.388 29.8789H157.403Z" fill="white"/>
<path d="M6.84668 13.2031H8.54297V22.2646C8.54297 23.4893 8.17383 24.4473 7.43555 25.1387C6.70312 25.8301 5.72461 26.1758 4.5 26.1758C3.22852 26.1758 2.23828 25.8506 1.5293 25.2002C0.820313 24.5498 0.46582 23.6387 0.46582 22.4668H2.15332C2.15332 23.1992 2.35254 23.7705 2.75098 24.1807C3.15527 24.5908 3.73828 24.7959 4.5 24.7959C5.19727 24.7959 5.75977 24.5762 6.1875 24.1367C6.62109 23.6973 6.84082 23.082 6.84668 22.291V13.2031ZM21.2607 20.0146C21.2607 21.2686 21.0498 22.3643 20.6279 23.3018C20.2061 24.2334 19.6084 24.9453 18.835 25.4375C18.0615 25.9297 17.1592 26.1758 16.1279 26.1758C15.1201 26.1758 14.2266 25.9297 13.4473 25.4375C12.668 24.9395 12.0615 24.2334 11.6279 23.3193C11.2002 22.3994 10.9805 21.3359 10.9688 20.1289V19.2061C10.9688 17.9756 11.1826 16.8887 11.6104 15.9453C12.0381 15.002 12.6416 14.2812 13.4209 13.7832C14.2061 13.2793 15.1025 13.0273 16.1104 13.0273C17.1357 13.0273 18.0381 13.2764 18.8174 13.7744C19.6025 14.2666 20.2061 14.9844 20.6279 15.9277C21.0498 16.8652 21.2607 17.958 21.2607 19.2061V20.0146ZM19.582 19.1885C19.582 17.6709 19.2773 16.5078 18.668 15.6992C18.0586 14.8848 17.2061 14.4775 16.1104 14.4775C15.0439 14.4775 14.2031 14.8848 13.5879 15.6992C12.9785 16.5078 12.665 17.6328 12.6475 19.0742V20.0146C12.6475 21.4854 12.9551 22.6426 13.5703 23.4863C14.1914 24.3242 15.0439 24.7432 16.1279 24.7432C17.2178 24.7432 18.0615 24.3477 18.6592 23.5566C19.2568 22.7598 19.5645 21.6201 19.582 20.1377V19.1885ZM32.8008 13.2031V21.9043C32.7949 23.1113 32.4141 24.0986 31.6582 24.8662C30.9082 25.6338 29.8887 26.0645 28.5996 26.1582L28.1514 26.1758C26.751 26.1758 25.6348 25.7979 24.8027 25.042C23.9707 24.2861 23.5488 23.2461 23.5371 21.9219V13.2031H25.207V21.8691C25.207 22.7949 25.4619 23.5156 25.9717 24.0312C26.4814 24.541 27.208 24.7959 28.1514 24.7959C29.1064 24.7959 29.8359 24.541 30.3398 24.0312C30.8496 23.5215 31.1045 22.8037 31.1045 21.8779V13.2031H32.8008ZM40.1572 20.8232H37.1514V26H35.4551V13.2031H39.6914C41.1328 13.2031 42.2402 13.5312 43.0137 14.1875C43.793 14.8438 44.1826 15.7988 44.1826 17.0527C44.1826 17.8496 43.9658 18.5439 43.5322 19.1357C43.1045 19.7275 42.5068 20.1699 41.7393 20.4629L44.7451 25.8945V26H42.9346L40.1572 20.8232ZM37.1514 19.4434H39.7441C40.582 19.4434 41.2471 19.2266 41.7393 18.793C42.2373 18.3594 42.4863 17.7793 42.4863 17.0527C42.4863 16.2617 42.249 15.6553 41.7744 15.2334C41.3057 14.8115 40.626 14.5977 39.7354 14.5918H37.1514V19.4434ZM56.3906 26H54.6943L48.252 16.1387V26H46.5557V13.2031H48.252L54.7119 23.1084V13.2031H56.3906V26ZM66.6123 22.6602H61.251L60.0469 26H58.3066L63.1934 13.2031H64.6699L69.5654 26H67.834L66.6123 22.6602ZM61.7607 21.2715H66.1113L63.9316 15.2861L61.7607 21.2715ZM72.9844 24.6201H79.0488V26H71.2881V13.2031H72.9844V24.6201ZM89.5078 13.2031V21.9043C89.502 23.1113 89.1211 24.0986 88.3652 24.8662C87.6152 25.6338 86.5957 26.0645 85.3066 26.1582L84.8584 26.1758C83.458 26.1758 82.3418 25.7979 81.5098 25.042C80.6777 24.2861 80.2559 23.2461 80.2441 21.9219V13.2031H81.9141V21.8691C81.9141 22.7949 82.1689 23.5156 82.6787 24.0312C83.1885 24.541 83.915 24.7959 84.8584 24.7959C85.8135 24.7959 86.543 24.541 87.0469 24.0312C87.5566 23.5215 87.8115 22.8037 87.8115 21.8779V13.2031H89.5078ZM93.8672 24.6201H99.9316V26H92.1709V13.2031H93.8672V24.6201ZM133.655 23.6094H129.428L128.689 26H125.394L130.087 13.2031H132.987L137.716 26H134.402L133.655 23.6094ZM130.166 21.2275H132.917L131.537 16.7891L130.166 21.2275ZM143.411 21.4824H141.741V26H138.656V13.2031H143.692C145.21 13.2031 146.396 13.54 147.252 14.2139C148.107 14.8877 148.535 15.8398 148.535 17.0703C148.535 17.9609 148.354 18.6992 147.99 19.2852C147.633 19.8711 147.07 20.3457 146.303 20.709L148.975 25.8682V26H145.67L143.411 21.4824ZM141.741 19.1006H143.692C144.278 19.1006 144.718 18.9482 145.011 18.6436C145.31 18.333 145.459 17.9023 145.459 17.3516C145.459 16.8008 145.31 16.3701 145.011 16.0596C144.712 15.7432 144.272 15.585 143.692 15.585H141.741V19.1006ZM160.005 15.585H156.164V26H153.079V15.585H149.309V13.2031H160.005V15.585ZM169.251 20.5771H164.399V23.627H170.13V26H161.314V13.2031H170.147V15.585H164.399V18.2832H169.251V20.5771ZM174.472 23.627H179.842V26H171.387V13.2031H174.472V23.627ZM191.417 19.8652C191.417 21.1133 191.186 22.2178 190.723 23.1787C190.26 24.1396 189.601 24.8809 188.745 25.4023C187.896 25.918 186.926 26.1758 185.836 26.1758C184.746 26.1758 183.779 25.9268 182.936 25.4287C182.092 24.9248 181.433 24.207 180.958 23.2754C180.489 22.3438 180.243 21.2744 180.22 20.0674V19.3467C180.22 18.0928 180.448 16.9883 180.905 16.0332C181.368 15.0723 182.027 14.3311 182.883 13.8096C183.744 13.2881 184.723 13.0273 185.818 13.0273C186.902 13.0273 187.869 13.2852 188.719 13.8008C189.568 14.3164 190.228 15.0518 190.696 16.0068C191.171 16.9561 191.411 18.0459 191.417 19.2764V19.8652ZM188.279 19.3291C188.279 18.0576 188.065 17.0938 187.638 16.4375C187.216 15.7754 186.609 15.4443 185.818 15.4443C184.271 15.4443 183.454 16.6045 183.366 18.9248L183.357 19.8652C183.357 21.1191 183.565 22.083 183.981 22.7568C184.397 23.4307 185.016 23.7676 185.836 23.7676C186.615 23.7676 187.216 23.4365 187.638 22.7744C188.06 22.1123 188.273 21.1602 188.279 19.918V19.3291ZM197.763 21.4824H196.093V26H193.008V13.2031H198.044C199.562 13.2031 200.748 13.54 201.604 14.2139C202.459 14.8877 202.887 15.8398 202.887 17.0703C202.887 17.9609 202.705 18.6992 202.342 19.2852C201.984 19.8711 201.422 20.3457 200.654 20.709L203.326 25.8682V26H200.021L197.763 21.4824ZM196.093 19.1006H198.044C198.63 19.1006 199.069 18.9482 199.362 18.6436C199.661 18.333 199.811 17.9023 199.811 17.3516C199.811 16.8008 199.661 16.3701 199.362 16.0596C199.063 15.7432 198.624 15.585 198.044 15.585H196.093V19.1006ZM215.833 22.5986C215.833 22.1475 215.672 21.7959 215.35 21.5439C215.033 21.292 214.474 21.0312 213.671 20.7617C212.868 20.4922 212.212 20.2314 211.702 19.9795C210.044 19.165 209.215 18.0459 209.215 16.6221C209.215 15.9131 209.42 15.2891 209.83 14.75C210.246 14.2051 210.832 13.7832 211.588 13.4844C212.344 13.1797 213.193 13.0273 214.137 13.0273C215.057 13.0273 215.88 13.1914 216.606 13.5195C217.339 13.8477 217.907 14.3164 218.312 14.9258C218.716 15.5293 218.918 16.2207 218.918 17H215.842C215.842 16.4785 215.681 16.0742 215.358 15.7871C215.042 15.5 214.611 15.3564 214.066 15.3564C213.516 15.3564 213.079 15.4795 212.757 15.7256C212.44 15.9658 212.282 16.2734 212.282 16.6484C212.282 16.9766 212.458 17.2754 212.81 17.5449C213.161 17.8086 213.779 18.084 214.664 18.3711C215.549 18.6523 216.275 18.957 216.844 19.2852C218.227 20.082 218.918 21.1807 218.918 22.5811C218.918 23.7002 218.496 24.5791 217.652 25.2178C216.809 25.8564 215.651 26.1758 214.181 26.1758C213.144 26.1758 212.203 25.9912 211.359 25.6221C210.521 25.2471 209.889 24.7373 209.461 24.0928C209.039 23.4424 208.828 22.6953 208.828 21.8516H211.922C211.922 22.5371 212.098 23.0439 212.449 23.3721C212.807 23.6943 213.384 23.8555 214.181 23.8555C214.69 23.8555 215.092 23.7471 215.385 23.5303C215.684 23.3076 215.833 22.9971 215.833 22.5986ZM223.585 21.6582V26H220.5V13.2031H225.606C226.585 13.2031 227.449 13.3848 228.199 13.748C228.955 14.1055 229.538 14.6182 229.948 15.2861C230.364 15.9482 230.572 16.7012 230.572 17.5449C230.572 18.793 230.124 19.792 229.228 20.542C228.337 21.2861 227.112 21.6582 225.554 21.6582H223.585ZM223.585 19.2764H225.606C226.204 19.2764 226.658 19.127 226.969 18.8281C227.285 18.5293 227.443 18.1074 227.443 17.5625C227.443 16.9648 227.282 16.4873 226.96 16.1299C226.638 15.7725 226.198 15.5908 225.642 15.585H223.585V19.2764ZM240.161 20.5771H235.31V23.627H241.04V26H232.225V13.2031H241.058V15.585H235.31V18.2832H240.161V20.5771ZM252.65 21.667C252.609 22.5576 252.369 23.3457 251.93 24.0312C251.49 24.7109 250.872 25.2383 250.075 25.6133C249.284 25.9883 248.379 26.1758 247.359 26.1758C245.678 26.1758 244.354 25.6279 243.387 24.5322C242.42 23.4365 241.937 21.8896 241.937 19.8916V19.2588C241.937 18.0049 242.153 16.9092 242.587 15.9717C243.026 15.0283 243.656 14.3018 244.477 13.792C245.297 13.2764 246.246 13.0186 247.324 13.0186C248.877 13.0186 250.125 13.4287 251.068 14.249C252.012 15.0635 252.548 16.1885 252.677 17.624H249.601C249.577 16.8447 249.381 16.2852 249.012 15.9453C248.643 15.6055 248.08 15.4355 247.324 15.4355C246.557 15.4355 245.994 15.7227 245.637 16.2969C245.279 16.8711 245.092 17.7881 245.074 19.0479V19.9531C245.074 21.3184 245.244 22.2939 245.584 22.8799C245.93 23.4658 246.521 23.7588 247.359 23.7588C248.068 23.7588 248.61 23.5918 248.985 23.2578C249.36 22.9238 249.56 22.3936 249.583 21.667H252.65ZM263.892 15.585H260.051V26H256.966V15.585H253.195V13.2031H263.892V15.585ZM271.415 23.6094H267.188L266.449 26H263.153L267.847 13.2031H270.747L275.476 26H272.162L271.415 23.6094ZM267.926 21.2275H270.677L269.297 16.7891L267.926 21.2275ZM286.576 21.667C286.535 22.5576 286.295 23.3457 285.855 24.0312C285.416 24.7109 284.798 25.2383 284.001 25.6133C283.21 25.9883 282.305 26.1758 281.285 26.1758C279.604 26.1758 278.279 25.6279 277.312 24.5322C276.346 23.4365 275.862 21.8896 275.862 19.8916V19.2588C275.862 18.0049 276.079 16.9092 276.513 15.9717C276.952 15.0283 277.582 14.3018 278.402 13.792C279.223 13.2764 280.172 13.0186 281.25 13.0186C282.803 13.0186 284.051 13.4287 284.994 14.249C285.938 15.0635 286.474 16.1885 286.603 17.624H283.526C283.503 16.8447 283.307 16.2852 282.938 15.9453C282.568 15.6055 282.006 15.4355 281.25 15.4355C280.482 15.4355 279.92 15.7227 279.562 16.2969C279.205 16.8711 279.018 17.7881 279 19.0479V19.9531C279 21.3184 279.17 22.2939 279.51 22.8799C279.855 23.4658 280.447 23.7588 281.285 23.7588C281.994 23.7588 282.536 23.5918 282.911 23.2578C283.286 22.9238 283.485 22.3936 283.509 21.667H286.576ZM298.872 19.8652C298.872 21.1133 298.641 22.2178 298.178 23.1787C297.715 24.1396 297.056 24.8809 296.2 25.4023C295.351 25.918 294.381 26.1758 293.291 26.1758C292.201 26.1758 291.234 25.9268 290.391 25.4287C289.547 24.9248 288.888 24.207 288.413 23.2754C287.944 22.3438 287.698 21.2744 287.675 20.0674V19.3467C287.675 18.0928 287.903 16.9883 288.36 16.0332C288.823 15.0723 289.482 14.3311 290.338 13.8096C291.199 13.2881 292.178 13.0273 293.273 13.0273C294.357 13.0273 295.324 13.2852 296.174 13.8008C297.023 14.3164 297.683 15.0518 298.151 16.0068C298.626 16.9561 298.866 18.0459 298.872 19.2764V19.8652ZM295.734 19.3291C295.734 18.0576 295.521 17.0938 295.093 16.4375C294.671 15.7754 294.064 15.4443 293.273 15.4443C291.727 15.4443 290.909 16.6045 290.821 18.9248L290.812 19.8652C290.812 21.1191 291.021 22.083 291.437 22.7568C291.853 23.4307 292.471 23.7676 293.291 23.7676C294.07 23.7676 294.671 23.4365 295.093 22.7744C295.515 22.1123 295.729 21.1602 295.734 19.918V19.3291ZM303.548 23.627H308.918V26H300.463V13.2031H303.548V23.627ZM320.045 13.2031V21.5791C320.045 22.5283 319.843 23.3516 319.438 24.0488C319.034 24.7402 318.454 25.2676 317.698 25.6309C316.942 25.9941 316.049 26.1758 315.018 26.1758C313.459 26.1758 312.231 25.7715 311.335 24.9629C310.438 24.1543 309.981 23.0469 309.964 21.6406V13.2031H313.066V21.7021C313.102 23.1025 313.752 23.8027 315.018 23.8027C315.656 23.8027 316.14 23.627 316.468 23.2754C316.796 22.9238 316.96 22.3525 316.96 21.5615V13.2031H320.045ZM325.063 23.627H330.434V26H321.979V13.2031H325.063V23.627ZM341.561 13.2031V21.5791C341.561 22.5283 341.358 23.3516 340.954 24.0488C340.55 24.7402 339.97 25.2676 339.214 25.6309C338.458 25.9941 337.564 26.1758 336.533 26.1758C334.975 26.1758 333.747 25.7715 332.851 24.9629C331.954 24.1543 331.497 23.0469 331.479 21.6406V13.2031H334.582V21.7021C334.617 23.1025 335.268 23.8027 336.533 23.8027C337.172 23.8027 337.655 23.627 337.983 23.2754C338.312 22.9238 338.476 22.3525 338.476 21.5615V13.2031H341.561ZM346.781 26H343.705V13.2031H346.781V26Z" fill="white"/>
<rect x="106" y="13" width="13" height="13" fill="#E60000"/>
</svg>
